# xmcd
#
# Track frame offsets: 
#        182
#        11780
#        24072
#        36695
#        49812
#        61580
#        73225
#        85750
#        98097
#        112042
#        125450
#        138667
#        152695
#        166417
#        180610
#        193307
#        206112
#        218102
#        232627
#        247952
#
# Disc length: 3466 seconds
#
# Revision: 5
# Processed by: cddbd v1.5.2PL0 Copyright (c) Steve Scherf et al.
# Submitted via: ExactAudioCopy v1.0b6
#
DISCID=180d8814
DTITLE=Muddy Waters - Muddy Waters on CHESS 1948-1951 (Vol 1)
DYEAR=1984
DGENRE=Blues
TTITLE0=Gypsy Woman (1948)
TTITLE1=I Can't Be Satisfied (1948)
TTITLE2=Train Fare Home (1948)
TTITLE3=Down South Blues (1948)
TTITLE4=Kind-Hearted Woman (1948)
TTITLE5=Whiskey Blues (1948)
TTITLE6=Little Geneva (1949)
TTITLE7=Canary Bird (1949)
TTITLE8=Screamin' and Cryin' (1949)
TTITLE9=Rolling And Tumbling (1950)
TTITLE10=Walking Blues (1950)
TTITLE11=You're Gonna Need My Help (1950)
TTITLE12=Sad Letter Blues (1950)
TTITLE13=Early Morning Blues (1950)
TTITLE14=Appealing Blues (1950)
TTITLE15=Louisiana Blues (1950)
TTITLE16=Long Distance Call (1951)
TTITLE17=Too Young To Know (1951)
TTITLE18=Honey Bee (1951)
TTITLE19=Howling Wolf (1951)
EXTD=
EXTT0=
EXTT1=
EXTT2=
EXTT3=
EXTT4=
EXTT5=
EXTT6=
EXTT7=
EXTT8=
EXTT9=
EXTT10=
EXTT11=
EXTT12=
EXTT13=
EXTT14=
EXTT15=
EXTT16=
EXTT17=
EXTT18=
EXTT19=
PLAYORDER=
